<svg width="44" height="28" viewBox="0 0 44 28" fill="none" xmlns="http://www.w3.org/2000/svg">
<path d="M9.9233 3.63636H14.179V17.8352C14.179 19.1477 13.884 20.2879 13.294 21.2557C12.7107 22.2235 11.8987 22.9692 10.858 23.4929C9.81723 24.0166 8.60748 24.2784 7.22869 24.2784C6.00237 24.2784 4.88873 24.063 3.88778 23.6321C2.89347 23.1946 2.10464 22.5317 1.52131 21.6435C0.937973 20.7486 0.649621 19.625 0.65625 18.2727H4.94176C4.95502 18.8097 5.06439 19.2704 5.26989 19.6548C5.48201 20.0327 5.77036 20.3243 6.13494 20.5298C6.50616 20.7287 6.94366 20.8281 7.44744 20.8281C7.97775 20.8281 8.42519 20.7154 8.78977 20.4901C9.16099 20.258 9.44271 19.92 9.63494 19.4759C9.82718 19.0317 9.9233 18.4848 9.9233 17.8352V3.63636ZM28.7855 9.4929C28.706 8.69081 28.3646 8.06771 27.7614 7.62358C27.1581 7.17945 26.3395 6.95739 25.3054 6.95739C24.6027 6.95739 24.0095 7.05682 23.5256 7.25568C23.0417 7.44792 22.6705 7.71638 22.4119 8.06108C22.16 8.40578 22.0341 8.79688 22.0341 9.23438C22.0208 9.59896 22.0971 9.91714 22.2628 10.1889C22.4351 10.4607 22.6705 10.696 22.9688 10.8949C23.267 11.0871 23.6117 11.2562 24.0028 11.402C24.3939 11.5412 24.8116 11.6605 25.2557 11.7599L27.0852 12.1974C27.9735 12.3963 28.7888 12.6615 29.5312 12.9929C30.2737 13.3243 30.9167 13.732 31.4602 14.2159C32.0038 14.6998 32.4247 15.2699 32.723 15.9261C33.0279 16.5824 33.1837 17.3348 33.1903 18.1832C33.1837 19.4295 32.8655 20.5099 32.2358 21.4247C31.6127 22.3329 30.7112 23.0388 29.5312 23.5426C28.358 24.0398 26.9427 24.2884 25.2855 24.2884C23.6416 24.2884 22.2098 24.0365 20.9901 23.5327C19.777 23.0289 18.8291 22.2831 18.1463 21.2955C17.4702 20.3011 17.1155 19.0715 17.0824 17.6065H21.2486C21.295 18.2893 21.4905 18.8594 21.8352 19.3168C22.1866 19.7675 22.6539 20.1089 23.2372 20.3409C23.8272 20.5663 24.4934 20.679 25.2358 20.679C25.965 20.679 26.598 20.5729 27.1349 20.3608C27.6785 20.1487 28.0994 19.8537 28.3977 19.4759C28.696 19.098 28.8452 18.6638 28.8452 18.1733C28.8452 17.7159 28.7093 17.3314 28.4375 17.0199C28.1723 16.7083 27.7813 16.4432 27.2642 16.2244C26.7538 16.0057 26.1274 15.8068 25.3849 15.6278L23.1676 15.071C21.4508 14.6534 20.0952 14.0005 19.1009 13.1122C18.1065 12.224 17.6127 11.0275 17.6193 9.52273C17.6127 8.28977 17.9408 7.21259 18.6037 6.29119C19.2732 5.36979 20.1913 4.65057 21.358 4.13352C22.5246 3.61648 23.8504 3.35795 25.3352 3.35795C26.8466 3.35795 28.1657 3.61648 29.2926 4.13352C30.4261 4.65057 31.3078 5.36979 31.9375 6.29119C32.5672 7.21259 32.892 8.27983 32.9119 9.4929H28.7855Z" fill="white"/>
<circle cx="41" cy="21" r="3" fill="#737373"/>
</svg>
