<svg width="70" height="70" viewBox="0 0 70 70" fill="none" xmlns="http://www.w3.org/2000/svg">
<path d="M59.7918 7.2915H10.2085L14.5835 56.8748L35.0002 62.7082L55.4168 56.8748L59.7918 7.2915Z" fill="white"/>
<path d="M35 11.6665V58.1873L51.3333 53.5207L54.9792 11.6665H35Z" fill="white"/>
<path d="M48.2708 18.9585H35V24.7918H42.1458L41.7083 30.6252H35V36.4585H41.4167L40.9792 43.021L35 45.0627V51.1877L46.5208 47.396L47.5417 30.6252L48.2708 18.9585Z" fill="black"/>
<path d="M35.0002 18.9585V24.7918H22.021L21.5835 18.9585H35.0002ZM28.2918 30.6252L28.5835 36.4585H35.0002V30.6252H28.2918ZM28.8752 39.3752H23.0418L23.4793 47.396L35.0002 51.1877V45.0627L29.021 43.021L28.8752 39.3752Z" fill="black"/>
</svg>
